PathFileType        4      (X/Y/Z)      C:\Users\pc\Desktop\IMUTRC\Sujet_08\Sujet_08_velo_60.trc         
DataRate	CameraRate	NumFrames	NumMarkers	Units	OrigDataRate	OrigDataStartFrame	OrigNumFrames
60.0	60.0	4	64	mm	60.0	701	934
Frame#	Time	pHipOrigin			pRightASI			pLeftASI			pRightCSI			pLeftCSI			pRightIschialTub			pLeftIschialTub			pSacrum			pL5SpinalProcess			pL3SpinalProcess			pT12SpinalProcess			pIJ			pT4SpinalProcess			pT8SpinalProcess			pPX			pC7SpinalProcess			pTopOfHead			pRightAuricularis			pLeftAuricularis			pBackOfHead			pRightAcromion			pLeftAcromion			pRightArmLatEpicondyle			pRightArmMedEpicondyle			pLeftArmLatEpicondyle			pLeftArmMedEpicondyle			pRightUlnarStyloid			pRightRadialStyloid			pRightOlecranon			pLeftUlnarStyloid			pLeftRadialStyloid			pLeftOlecranon			pRightTopOfHand			pRightPinky			pRightBallHand			pLeftTopOfHand			pLeftPinky			pLeftBallHand			pRightGreaterTrochanter			pRightKneeLatEpicondyle			pRightKneeMedEpicondyle			pRightPatella			pLeftGreaterTrochanter			pLeftKneeLatEpicondyle			pLeftKneeMedEpicondyle			pLeftPatella			pRightTibialTub			pRightLatMalleolus			pRightMedMalleolus			pLeftTibialTub			pLeftLatMalleolus			pLeftMedMalleolus			pRightHeelFoot			pRightFirstMetatarsal			pRightFifthMetatarsal			pRightPivotFoot			pRightHeelCenter			pRightToe			pLeftHeelFoot			pLeftFirstMetatarsal			pLeftFifthMetatarsal			pLeftPivotFoot			pLeftHeelCenter			pLeftToe			
		X1	Y1	Z1	X2	Y2	Z2	X3	Y3	Z3	X4	Y4	Z4	X5	Y5	Z5	X6	Y6	Z6	X7	Y7	Z7	X8	Y8	Z8	X9	Y9	Z9	X10	Y10	Z10	X11	Y11	Z11	X12	Y12	Z12	X13	Y13	Z13	X14	Y14	Z14	X15	Y15	Z15	X16	Y16	Z16	X17	Y17	Z17	X18	Y18	Z18	X19	Y19	Z19	X20	Y20	Z20	X21	Y21	Z21	X22	Y22	Z22	X23	Y23	Z23	X24	Y24	Z24	X25	Y25	Z25	X26	Y26	Z26	X27	Y27	Z27	X28	Y28	Z28	X29	Y29	Z29	X30	Y30	Z30	X31	Y31	Z31	X32	Y32	Z32	X33	Y33	Z33	X34	Y34	Z34	X35	Y35	Z35	X36	Y36	Z36	X37	Y37	Z37	X38	Y38	Z38	X39	Y39	Z39	X40	Y40	Z40	X41	Y41	Z41	X42	Y42	Z42	X43	Y43	Z43	X44	Y44	Z44	X45	Y45	Z45	X46	Y46	Z46	X47	Y47	Z47	X48	Y48	Z48	X49	Y49	Z49	X50	Y50	Z50	X51	Y51	Z51	X52	Y52	Z52	X53	Y53	Z53	X54	Y54	Z54	X55	Y55	Z55	X56	Y56	Z56	X57	Y57	Z57	X58	Y58	Z58	X59	Y59	Z59	X60	Y60	Z60	X61	Y61	Z61	X62	Y62	Z62	X63	Y63	Z63	X64	Y64	Z64	
701	11.667	0.0	1249.97582	7.653894434872941E-14	104.165472085737	1329.14957	118.28684740468303	73.66203612754649	1320.10114	-144.19209356230115	77.86995573169996	1403.31437	95.27421531850106	52.64267930185731	1395.72016	-120.82654133029828	-60.86879050667283	1213.94368	63.26353063444439	-73.45438136536515	1210.06579	-44.94596973913001	-56.711662053434935	1288.10848	5.25887739624049	5.081982517483683	1371.32171	-3.6979125984384207	68.99996140148362	1466.16864	-15.397494990431666	126.88083235743036	1553.25977	-26.356783444156186	368.5313756717455	1603.02613	-73.65856734945417	255.50280927227922	1689.95567	-51.422120333834876	192.42734140688412	1633.24142	-38.91770014418956	285.5476990463385	1521.75184	-57.11720104920908	292.0814077719522	1721.30202	-54.160343119625686	420.4558137471727	1911.15745	-109.45853525586605	441.48721792292446	1815.6642	-46.356173582921755	356.25909689425924	1822.93526	-150.1469871604599	359.81837090487636	1832.46843	-65.18652539536681	331.57327480449806	1668.78881	94.06887247739725	269.57622641271354	1669.91987	-214.98116652060907	467.29740504135435	1418.17965	53.84866503306191	431.3294806495104	1404.76859	5.668261923951278	401.09060310975	1408.96964	-171.77488415707538	372.6623924806574	1401.37542	-117.55765966162147	557.6565273593524	1184.21313	35.49042910468139	596.7215027469699	1204.89525	8.415796383947555	429.5753271817206	1404.28385	45.39245614085568	500.2684580296211	1182.43576	-178.73384260077907	544.5899724354051	1205.70315	-165.83253250330924	364.1491879835863	1396.36647	-153.02160918902675	724.2078717267314	1086.94252	95.86747960565938	634.13388642469	1103.90832	78.18021693980441	593.6362963965694	1152.86679	34.28733269303534	648.4795236193258	1090.01252	-281.3965178701731	566.0328299077217	1103.90832	-239.98564172954747	536.7993895311246	1152.54363	-187.71518976141505	34.88804065199881	1229.77843	157.5898892011115	354.18126255068404	997.26613	119.38459099868757	356.7071502066967	1002.9214	42.716272760329815	378.4933983884165	1036.52985	81.99727169299719	3.543934695282317	1220.73001	-159.67316637935147	299.9763613896266	956.70978	-156.6256368613526	312.4169886023975	962.84978	-81.09196847073707	332.6568469596149	993.54981	-123.29914581362013	404.95416233259584	970.60558	81.74085965659103	326.6923703415489	599.94315	130.1243764334087	327.84458539014497	596.71157	69.62100430389195	328.58495795598884	910.98289	-125.32970060873137	53.433630465849745	647.77056	-154.1576992861012	59.96589185771883	641.14582	-94.43229084284232	270.9492310859437	530.7873	100.11453496051831	419.2065163400735	492.33148	60.46353457964497	420.65834795634606	491.362	135.04401761279843	440.4400556907336	486.51463	96.36564370248297	307.5093849249928	524.00098	99.34192131252537	517.2013793954341	465.50935	94.64206260943648	-30.03431653830877	630.4816	-119.98198021181123	58.458821819639724	501.54149	-95.19023569395239	54.18963873681588	505.41939	-169.6112032770034	68.24413890271697	485.86832	-133.006101183152	-7.055845181929868	601.39736	-122.82126566101745	112.2635224386286	419.78247	-138.86225356347933	
702	11.683	0.0	1249.97582	7.653894434872941E-14	105.12944496819831	1329.31115	117.47239619510741	72.79146703639424	1319.77799	-144.83780612322153	78.67480511391135	1403.31437	94.43169618830048	52.09035083609095	1395.55858	-121.41613948260559	-60.606666026381774	1214.10526	63.6378955165209	-73.88486239253649	1210.06579	-44.365594785375535	-56.60865122531628	1288.27006	5.605176094173808	5.138098662578528	1371.32171	-4.016163071901845	68.98112479100725	1466.00706	-16.221169398560118	126.75898665531712	1553.09819	-27.52676639829549	368.156628687894	1603.02613	-76.18572467860766	255.07193629525537	1689.95567	-53.63102892600672	192.23054642216323	1633.24142	-40.59312672914895	285.4070184702307	1521.91342	-59.110868259554366	291.67859286747574	1721.30202	-56.52837694852924	419.3696130608232	1911.31902	-112.60334880987428	440.7192677100384	1815.98736	-49.4448709918351	355.3039535240164	1822.93526	-153.10461914167075	358.8632391191929	1832.63001	-68.14416548817341	331.8630752555616	1668.78881	91.4948303132975	268.95817997448813	1669.43513	-217.0590062121148	467.23167548433594	1418.01807	52.36043160545918	431.26375109249204	1404.44543	4.180028496348556	400.3603145332573	1408.64648	-173.21622463813608	371.93211375224223	1401.21385	-118.9989984062004	557.1042104781453	1183.72839	34.90082284077835	596.1691858657629	1204.24894	7.826190120044489	429.5095976247022	1404.12227	43.90422271325295	499.3978889384689	1181.95102	-179.37955516169947	543.7194050807346	1205.37999	-166.4782549123071	363.44696732771854	1396.20489	-154.62207317033736	723.4683616881676	1086.45778	95.40893876945886	633.4224344586737	1103.26201	77.56255086687216	593.0839795153623	1152.22047	33.697726429132274	647.843022672399	1089.36621	-281.5087501603628	565.2652617966106	1103.26201	-240.28505732901635	536.0598794925609	1152.22047	-188.1737305976156	33.58699053367521	1228.16264	157.52455159394563	340.7029811095033	979.49243	120.45351128941147	344.18361033782867	985.63243	43.953539749856446	367.40197580205626	1017.78667	83.48705959896887	4.6858595768741935	1221.86106	-159.63588684473297	310.78719513891684	969.47452	-156.52418398456643	322.535224955821	975.12979	-80.78449393771368	341.86722483919016	1007.12245	-122.49546069640695	392.88915171536905	953.63977	82.23862471914971	321.20719081781385	581.36156	128.66497339349914	321.69484511045385	578.61471	68.20850405860189	338.066683514408	923.26291	-125.13446010237942	58.86230363111925	664.41321	-155.16933916673202	65.23543804977484	657.62689	-95.47197894794304	264.7714443182645	512.69044	98.86115184036423	413.0287179878349	473.58831	59.21015957108662	414.4805513405893	472.78041	133.79063275616258	434.2622590749768	467.77146	95.1122588458471	301.3315981573136	505.74254	98.08853819237129	511.0235926277547	446.44302	93.38867948928238	-24.68058454405118	647.77056	-121.49905213870284	62.61450293913306	518.18413	-96.42633841848082	58.82269556650435	521.90045	-170.76313178388955	72.5308871863946	502.34938	-134.05502059840128	-1.8893063450289382	618.36317	-124.20727216020656	115.88571170283194	435.7788	-139.86428003218663	
703	11.7	0.0	1249.97582	7.653894434872941E-14	105.90623627786226	1329.31115	116.78900230163853	72.05195699783052	1319.61641	-145.29634695942207	79.42353661454611	1403.31437	93.90743737964085	51.53802410680637	1395.23542	-122.00574748299042	-60.18540472479971	1214.10526	64.04031035954904	-74.12815199883295	1210.06579	-43.91627541124604	-56.505642133679416	1288.27006	5.951484640184659	5.16615673512595	1371.32171	-4.175288308633557	68.93423184446522	1466.00706	-16.885728418034393	126.63714268968566	1553.09819	-28.696759200512318	367.5946868102041	1603.34928	-78.58180673198112	254.61301509376162	1690.11725	-55.680810544965084	191.8746244642288	1633.24142	-42.296601538578244	285.0791545848437	1521.91342	-60.97346830571535	291.1166625743451	1721.4636	-58.92446711349845	418.12428887422374	1911.64218	-115.77623028450745	439.9232513130091	1816.31052	-52.374454748576085	354.1616384290538	1822.93526	-155.9311920702931	358.0391727612119	1832.79159	-70.91461242362337	332.12482921863693	1669.11197	89.07990527433368	268.0218732147217	1669.11197	-219.19296378519726	466.9787643545202	1417.85649	51.00325549396321	431.01083822619444	1404.28385	2.822862232930107	399.63003754132393	1408.4849	-174.65757323079256	371.20182691223135	1401.21385	-120.44034873533866	556.5518820123789	1183.40524	34.311224688471064	595.6168591364782	1203.7642	7.236582119659661	429.2566864948864	1403.96069	42.547046601756996	498.36818649898913	1181.62787	-180.05333737972657	542.8207698054392	1205.05683	-166.96485382105513	362.7166903357852	1396.04331	-156.06342176299384	722.8879867344132	1085.97305	94.97845774228752	632.8420496568416	1102.93885	77.13206810321904	592.5316510495959	1151.73573	33.108128276824985	647.0474063368179	1088.71989	-281.6490387866182	564.497703533577	1102.77727	-240.58447119200332	535.0021288286113	1151.73573	-188.6883858424292	32.09875884255426	1226.38527	157.5902713028865	326.26994824793223	962.52662	121.35408314485082	330.892512205927	969.15137	44.89139287639605	355.2996972347703	999.68981	85.12674143152367	5.855842531013501	1223.15369	-159.7577325468462	321.51386625512407	982.72401	-155.94536350918088	332.09190326981144	988.05612	-80.0838294966967	350.67517976414155	1021.17983	-121.27052586217101	379.86941111038874	937.15871	82.56803497130988	313.83135317537034	563.74944	127.6925594757082	313.65446003309535	561.32575	67.28297497575724	347.4923045122916	936.51239	-124.62097723415978	65.72310392697418	680.40954	-155.92845639443604	71.93710326082052	673.46164	-96.25915598467627	256.70299943187683	495.56306	98.09475784232883	404.64202436446556	455.49145	58.38763957987885	406.2529812174699	454.84513	132.99618068557973	425.7164402148758	449.51302	94.2616807820919	293.26314342284843	488.45358	97.32214245785411	502.47776218309434	427.69984	92.53810953712296	-18.10998649718979	663.92847	-122.47341248471521	68.86685051253102	534.01888	-97.45681490958803	65.26223629725898	538.05836	-171.9246737026993	78.62411937113836	518.34571	-135.1135534255741	4.681301549909978	634.68266	-125.18163076973714	121.97894388757572	451.77513	-140.92281285935945	
704	11.717	0.0	1249.97582	7.653894434872941E-14	106.68301600296692	1329.31115	116.1056165197654	71.15333157061262	1319.45483	-145.78294413168825	80.01313476685341	1403.31437	93.3551089138745	50.77046584377276	1395.23542	-122.30516134597748	-59.76414515969941	1214.26684	64.44273505065475	-74.39950952575434	1210.22736	-43.30783253686662	-56.40263304204256	1288.27006	6.297793186195503	5.194214807673373	1371.32171	-4.334413545365271	68.88733716144142	1466.00706	-17.550277589431136	126.3281235263708	1553.09819	-29.73567325398556	367.0046984445261	1603.67244	-80.8187716602186	253.96690073491123	1690.27883	-57.59952673622093	191.3315290450928	1633.24142	-43.869007447341474	284.88236771171853	1522.075	-62.648883306115444	290.3675373873761	1721.62518	-61.18948200268761	416.82284680604755	1911.96534	-118.63085143759966	438.9400597182964	1816.79526	-55.17295975657345	352.9632054525145	1823.25842	-158.43950467737443	357.0279248304336	1833.11475	-73.55400204296656	332.3585152610874	1669.59671	86.82410373561983	266.8983929937537	1668.78881	-221.19585245761354	466.5386780270211	1417.85649	49.777158131210854	430.57074378709956	1404.12227	1.596753285618434	398.5534502668979	1408.32333	-175.9959028837346	370.2843648745371	1401.21385	-121.75062031573329	555.6251985126137	1183.08208	33.98375275293659	594.746290045326	1203.27946	6.590869558739288	428.97571555604145	1404.12227	41.34900557507025	497.3104358350395	1181.46629	-180.56799262454012	541.791077214037	1204.73368	-167.63863430260042	361.7992184500133	1396.04331	-157.37369507987026	721.9612933865702	1085.64989	94.65098407027126	631.9153661570764	1102.61569	76.80459616768458	591.6049675498306	1151.41258	32.780656341290495	646.2517801531594	1088.23515	-281.78932914935524	563.571010185734	1102.45411	-240.91194486401957	534.103491816834	1151.57416	-189.17497490309964	30.32033301403553	1224.76948	157.44075947807832	310.8821622294891	946.20714	122.08631641308315	316.6185929965284	953.31662	45.82003091597858	342.2707235831596	982.07769	86.43895944013974	6.997775524201138	1224.6079	-159.72044142766845	331.9691879560056	996.94297	-154.75808857485663	341.5363591416897	1001.95192	-78.74666237227106	359.21177716217153	1036.20669	-119.43714815355565	365.65160804608496	921.48554	83.17842253742899	304.0594253679576	547.10679	127.28207585104789	303.72341510054673	545.00626	66.84444486310883	356.83374955605126	950.73135	-123.63010880766747	73.85688642052773	696.24429	-156.4631125147242	80.07089560245161	688.81165	-96.79381036848268	246.23845453244246	479.56673	97.89029240094226	393.728171675461	438.04091	57.939876420600086	395.498253765197	437.55617	132.5764755988484	414.9617110261211	432.06248	93.84198554343807	282.66754120730724	472.13409	96.93049544367018	491.4047941054356	409.60299	92.06229004177852	-9.948137819493052	679.27848	-123.16718225717581	77.08481707180438	549.53048	-98.46884500358958	73.63931824518653	553.73153	-172.9086474606352	87.02925939161335	534.01888	-136.25665242024175	12.84314211601096	650.03267	-125.87541212675704	130.59932355339546	467.4483	-142.35609440686557	
